<?xml version="1.0" encoding="utf-8"?>
<!-- Generator: Adobe Illustrator 17.1.0, SVG Export Plug-In . SVG Version: 6.00 Build 0)  -->
<!DOCTYPE svg PUBLIC "-//W3C//DTD SVG 1.1//EN" "http://www.w3.org/Graphics/SVG/1.1/DTD/svg11.dtd">
<svg version="1.1" xmlns="http://www.w3.org/2000/svg" xmlns:xlink="http://www.w3.org/1999/xlink" x="0px" y="0px"
	 viewBox="0 0 534.7 60" enable-background="new 0 0 534.7 60" xml:space="preserve">
<g id="Layer_1" display="none">
</g>
<g id="Layer_3">
</g>
<g id="Layer_6">
</g>
<g id="Layer_1_copy_2">
	<g>
		<path fill="#FFFFFF" d="M261.9,19.8h-4.5v-2l4.5-0.2l0.4-8.3h2.3v8.3h8.3v2.3h-8.3v18.7c0,0.9,0.1,1.7,0.2,2.5
			c0.1,0.7,0.4,1.4,0.7,1.9c0.4,0.5,0.8,1,1.5,1.3c0.6,0.3,1.4,0.4,2.4,0.4c0.6,0,1.2-0.1,1.8-0.3c0.7-0.2,1.2-0.4,1.8-0.6l0.7,2.2
			c-0.8,0.3-1.7,0.6-2.5,0.8c-0.8,0.2-1.6,0.3-2.2,0.3c-1.4,0-2.6-0.2-3.5-0.6c-0.9-0.4-1.7-1-2.2-1.8c-0.6-0.8-0.9-1.7-1.2-2.8
			c-0.2-1.1-0.3-2.3-0.3-3.5V19.8z"/>
		<path fill="#FFFFFF" d="M275.4,32c0-2.4,0.3-4.5,1-6.3c0.7-1.9,1.6-3.5,2.8-4.8c1.2-1.3,2.5-2.3,4-3c1.5-0.7,3-1,4.6-1
			c3.4,0,6.1,1.2,8.1,3.5c2,2.3,2.9,5.6,2.9,9.8c0,0.4,0,0.7,0,1.1s0,0.7-0.1,1.1h-20.7c0,1.8,0.3,3.5,0.8,5
			c0.5,1.5,1.2,2.9,2.2,3.9c0.9,1.1,2.1,2,3.4,2.6c1.3,0.6,2.8,0.9,4.4,0.9c1.6,0,3-0.2,4.2-0.7c1.3-0.5,2.4-1.1,3.5-1.9l1.1,2
			c-1.2,0.7-2.4,1.3-3.8,1.9c-1.4,0.6-3.1,0.9-5.2,0.9c-1.8,0-3.6-0.3-5.2-1c-1.6-0.7-3-1.7-4.2-3c-1.2-1.3-2.1-2.9-2.8-4.7
			C275.8,36.4,275.4,34.3,275.4,32z M296.4,30.2c0-3.7-0.8-6.5-2.3-8.3c-1.5-1.9-3.6-2.8-6.2-2.8c-1.2,0-2.4,0.3-3.5,0.8
			c-1.1,0.5-2.1,1.3-3,2.2c-0.9,1-1.6,2.1-2.2,3.5c-0.6,1.4-0.9,2.9-1.1,4.6H296.4z"/>
		<path fill="#FFFFFF" d="M304,17.5h2.3l0.2,4.4h0.2c1.5-1.5,3-2.7,4.5-3.7c1.6-1,3.3-1.5,5.3-1.5c3,0,5.2,0.9,6.6,2.7
			c1.4,1.8,2.1,4.6,2.1,8.3v18.4h-2.6V28.2c0-3.1-0.5-5.3-1.5-6.8c-1-1.5-2.7-2.2-5.1-2.2c-1.7,0-3.3,0.4-4.7,1.3
			c-1.4,0.9-3,2.2-4.7,4v21.7H304V17.5z"/>
	</g>
	<g>
		<path fill="#FFFFFF" d="M333.8,23.5h-4.1v-6.5l4.5-0.4l1-7.9h7.3v7.9h7.1v6.9h-7.1v11.9c0,1.7,0.3,2.9,1,3.6
			c0.7,0.7,1.6,1.1,2.8,1.1c0.5,0,1-0.1,1.5-0.2c0.5-0.1,0.9-0.3,1.3-0.4l1.4,6.4c-0.8,0.2-1.7,0.5-2.8,0.7
			c-1.1,0.2-2.3,0.4-3.8,0.4c-1.8,0-3.4-0.3-4.7-0.8c-1.3-0.6-2.4-1.3-3.2-2.3c-0.8-1-1.4-2.2-1.8-3.6c-0.4-1.4-0.6-3-0.6-4.7V23.5z
			"/>
		<path fill="#FFFFFF" d="M351.5,16.6h8.7l2.9,13.8c0.2,1.5,0.5,2.9,0.7,4.4c0.2,1.4,0.4,2.9,0.7,4.4h0.2c0.3-1.5,0.5-3,0.8-4.5
			c0.3-1.5,0.6-2.9,0.9-4.3l3.3-13.8h7.6l3.4,13.8c0.4,1.5,0.7,2.9,1,4.4c0.3,1.4,0.6,2.9,0.9,4.4h0.2c0.3-1.5,0.5-3,0.7-4.4
			c0.2-1.4,0.4-2.9,0.7-4.4l2.8-13.8h8.1L388,46.3h-10.3L375,34.4c-0.3-1.4-0.6-2.8-0.8-4.2c-0.2-1.4-0.5-2.9-0.8-4.5h-0.2
			c-0.3,1.6-0.5,3.1-0.7,4.5c-0.2,1.4-0.5,2.8-0.7,4.2L369,46.3H359L351.5,16.6z"/>
		<path fill="#FFFFFF" d="M395.5,31.4c0-2.4,0.4-4.6,1.2-6.5c0.8-1.9,1.8-3.6,3.1-4.9c1.3-1.3,2.8-2.4,4.5-3.1
			c1.7-0.7,3.4-1.1,5.2-1.1c2.1,0,4,0.4,5.5,1.1c1.6,0.7,2.9,1.7,3.9,3c1.1,1.3,1.8,2.8,2.4,4.5c0.5,1.7,0.8,3.6,0.8,5.7
			c0,0.8,0,1.5-0.1,2.2c-0.1,0.7-0.2,1.2-0.2,1.5H404c0.4,2.3,1.3,3.9,2.7,4.9c1.4,1,3.1,1.5,5.1,1.5c2.1,0,4.2-0.7,6.4-2l2.9,5.3
			c-1.5,1-3.2,1.9-5.1,2.5c-1.9,0.6-3.7,0.9-5.5,0.9c-2.1,0-4.1-0.3-5.9-1c-1.8-0.7-3.4-1.7-4.8-3.1c-1.4-1.3-2.4-3-3.2-4.9
			C395.8,36.1,395.5,33.9,395.5,31.4z M414.6,28.4c0-1.7-0.4-3.1-1.1-4.2c-0.8-1.1-2-1.6-3.8-1.6c-1.4,0-2.6,0.5-3.7,1.4
			c-1.1,0.9-1.7,2.4-2.1,4.4H414.6z"/>
		<path fill="#FFFFFF" d="M425.5,16.6h7.2l0.6,3.8h0.2c1.3-1.2,2.7-2.2,4.2-3.1c1.5-0.9,3.3-1.3,5.3-1.3c3.2,0,5.6,1.1,7,3.2
			c1.5,2.1,2.2,5,2.2,8.8v18.4h-8.8V29c0-2.2-0.3-3.6-0.9-4.4c-0.6-0.8-1.5-1.2-2.8-1.2c-1.1,0-2.1,0.3-2.9,0.7
			c-0.8,0.5-1.7,1.2-2.6,2.1v20h-8.8V16.6z"/>
		<path fill="#FFFFFF" d="M459.4,23.5h-4.1v-6.5l4.5-0.4l1-7.9h7.3v7.9h7.1v6.9h-7.1v11.9c0,1.7,0.3,2.9,1,3.6
			c0.7,0.7,1.6,1.1,2.8,1.1c0.5,0,1-0.1,1.5-0.2c0.5-0.1,0.9-0.3,1.3-0.4l1.4,6.4c-0.8,0.2-1.7,0.5-2.8,0.7
			c-1.1,0.2-2.3,0.4-3.8,0.4c-1.8,0-3.4-0.3-4.7-0.8c-1.3-0.6-2.4-1.3-3.2-2.3c-0.8-1-1.4-2.2-1.8-3.6c-0.4-1.4-0.6-3-0.6-4.7V23.5z
			"/>
		<path fill="#FFFFFF" d="M482.5,50.8c0.4,0.1,0.7,0.1,1,0.1c1.5,0,2.6-0.4,3.4-1.1c0.8-0.7,1.4-1.7,1.8-2.8l0.4-1.6l-11.4-28.9h8.9
			l4.2,12.7c0.4,1.4,0.8,2.7,1.2,4.1c0.4,1.4,0.7,2.8,1.1,4.3h0.2c0.3-1.4,0.6-2.8,1-4.2c0.3-1.4,0.7-2.8,1-4.2l3.6-12.7h8.4
			l-10.3,30c-0.7,1.9-1.5,3.5-2.2,4.9c-0.8,1.4-1.7,2.6-2.7,3.5c-1,0.9-2.2,1.6-3.5,2.1c-1.3,0.5-2.8,0.7-4.6,0.7
			c-0.9,0-1.7-0.1-2.3-0.1c-0.6-0.1-1.3-0.3-1.9-0.4l1.6-6.7C481.8,50.7,482.1,50.7,482.5,50.8z"/>
	</g>
	<g>
		<path fill="#08A7D0" d="M512.8,21l3.5-6.2l-6.5-2.9l1.4-4.3l6.9,1.4l0.8-7.1h4.6l0.8,7.1l6.9-1.5l1.4,4.3l-6.5,2.9l3.5,6.2
			l-3.7,2.6l-4.8-5.3l-4.8,5.3L512.8,21z"/>
	</g>
	<g>
		<path fill="#FFFFFF" d="M7.1,32.2c0-1.6,0.2-3,0.7-4.3c0.5-1.3,1.1-2.4,1.9-3.3c0.8-0.9,1.7-1.6,2.8-2.1c1.1-0.5,2.2-0.7,3.4-0.7
			c1.2,0,2.3,0.2,3.1,0.6c0.9,0.4,1.8,1,2.8,1.8l-0.1-3.6v-8.2h1.8V42H22l-0.2-2.6h-0.1C21,40.3,20,41,18.9,41.6
			c-1.1,0.6-2.3,0.9-3.6,0.9c-2.5,0-4.5-0.9-6-2.7C7.9,38.1,7.1,35.5,7.1,32.2z M9.1,32.2c0,1.3,0.1,2.5,0.4,3.6s0.7,2,1.3,2.7
			c0.5,0.8,1.2,1.3,2,1.8c0.8,0.4,1.7,0.6,2.8,0.6c1.1,0,2.1-0.3,3.1-0.8c1-0.6,2-1.4,3.1-2.4V25.9c-1-0.9-2-1.6-2.9-2
			c-0.9-0.4-1.9-0.6-2.8-0.6c-1,0-1.9,0.2-2.8,0.7c-0.9,0.5-1.6,1.1-2.2,1.9c-0.6,0.8-1.1,1.7-1.5,2.8C9.3,29.8,9.1,30.9,9.1,32.2z"
			/>
		<path fill="#FFFFFF" d="M29.5,32.2c0-1.6,0.2-3.1,0.7-4.4c0.5-1.3,1.1-2.4,1.9-3.3c0.8-0.9,1.7-1.6,2.8-2.1c1-0.5,2.1-0.7,3.2-0.7
			c2.4,0,4.2,0.8,5.6,2.4c1.3,1.6,2,3.8,2,6.8c0,0.2,0,0.5,0,0.7s0,0.5-0.1,0.7H31.4c0,1.2,0.2,2.4,0.6,3.4c0.4,1.1,0.9,2,1.5,2.7
			c0.6,0.8,1.4,1.3,2.3,1.8c0.9,0.4,1.9,0.6,3,0.6c1.1,0,2-0.2,2.9-0.5c0.9-0.3,1.7-0.7,2.4-1.3l0.7,1.4c-0.8,0.5-1.7,0.9-2.6,1.3
			c-0.9,0.4-2.1,0.6-3.6,0.6c-1.3,0-2.4-0.2-3.6-0.7c-1.1-0.5-2.1-1.1-2.9-2c-0.8-0.9-1.5-2-2-3.3C29.8,35.2,29.5,33.8,29.5,32.2z
			 M44,31c0-2.6-0.5-4.5-1.6-5.7c-1-1.3-2.5-1.9-4.2-1.9c-0.9,0-1.7,0.2-2.4,0.5c-0.8,0.4-1.5,0.9-2.1,1.5s-1.1,1.5-1.5,2.4
			c-0.4,0.9-0.7,2-0.8,3.2H44z"/>
		<path fill="#FFFFFF" d="M48.3,22.3h2l4.4,12.4c0.3,1,0.6,1.9,1,2.9c0.4,1,0.7,1.9,1,2.8h0.2c0.3-0.9,0.7-1.8,1-2.8
			c0.3-1,0.7-1.9,1-2.9l4.4-12.4h1.9L57.8,42h-2.1L48.3,22.3z"/>
		<path fill="#FFFFFF" d="M67.8,32.2c0-1.6,0.2-3.1,0.7-4.4c0.5-1.3,1.1-2.4,1.9-3.3c0.8-0.9,1.7-1.6,2.8-2.1c1-0.5,2.1-0.7,3.2-0.7
			c2.4,0,4.2,0.8,5.6,2.4c1.3,1.6,2,3.8,2,6.8c0,0.2,0,0.5,0,0.7s0,0.5-0.1,0.7H69.6c0,1.2,0.2,2.4,0.6,3.4c0.4,1.1,0.9,2,1.5,2.7
			c0.6,0.8,1.4,1.3,2.3,1.8c0.9,0.4,1.9,0.6,3,0.6c1.1,0,2-0.2,2.9-0.5c0.9-0.3,1.7-0.7,2.4-1.3l0.7,1.4c-0.8,0.5-1.7,0.9-2.6,1.3
			c-0.9,0.4-2.1,0.6-3.6,0.6c-1.3,0-2.4-0.2-3.6-0.7c-1.1-0.5-2.1-1.1-2.9-2c-0.8-0.9-1.5-2-2-3.3C68,35.2,67.8,33.8,67.8,32.2z
			 M82.2,31c0-2.6-0.5-4.5-1.6-5.7c-1-1.3-2.5-1.9-4.2-1.9c-0.9,0-1.7,0.2-2.4,0.5c-0.8,0.4-1.5,0.9-2.1,1.5s-1.1,1.5-1.5,2.4
			c-0.4,0.9-0.7,2-0.8,3.2H82.2z"/>
		<path fill="#FFFFFF" d="M89.3,12.4h1.8v27.2c0,0.4,0.1,0.8,0.2,1c0.2,0.2,0.4,0.3,0.6,0.3c0.1,0,0.2,0,0.3,0c0.1,0,0.3,0,0.5-0.1
			l0.3,1.5c-0.2,0.1-0.4,0.1-0.6,0.1c-0.2,0-0.4,0.1-0.7,0.1c-1.6,0-2.4-1-2.4-3.1V12.4z"/>
		<path fill="#FFFFFF" d="M97.4,32.2c0-1.6,0.2-3.1,0.7-4.4c0.5-1.3,1.1-2.4,1.9-3.3c0.8-0.9,1.8-1.6,2.8-2c1.1-0.5,2.2-0.7,3.4-0.7
			c1.2,0,2.3,0.2,3.4,0.7c1.1,0.5,2,1.1,2.8,2c0.8,0.9,1.5,2,1.9,3.3c0.5,1.3,0.7,2.8,0.7,4.4s-0.2,3.1-0.7,4.4
			c-0.5,1.3-1.1,2.4-1.9,3.2c-0.8,0.9-1.8,1.6-2.8,2c-1.1,0.5-2.2,0.7-3.4,0.7c-1.2,0-2.3-0.2-3.4-0.7c-1.1-0.5-2-1.1-2.8-2
			s-1.5-2-1.9-3.2C97.7,35.3,97.4,33.8,97.4,32.2z M99.3,32.2c0,1.3,0.2,2.5,0.5,3.5c0.4,1.1,0.8,2,1.5,2.8c0.6,0.8,1.4,1.4,2.2,1.8
			c0.9,0.4,1.8,0.6,2.8,0.6s1.9-0.2,2.8-0.6c0.9-0.4,1.6-1,2.2-1.8c0.6-0.8,1.1-1.7,1.5-2.8c0.4-1.1,0.5-2.3,0.5-3.5
			c0-1.3-0.2-2.5-0.5-3.6c-0.4-1.1-0.8-2-1.5-2.8c-0.6-0.8-1.4-1.4-2.2-1.8c-0.9-0.4-1.8-0.6-2.8-0.6s-1.9,0.2-2.8,0.6
			c-0.9,0.4-1.6,1-2.2,1.8c-0.6,0.8-1.1,1.7-1.5,2.8C99.5,29.7,99.3,30.9,99.3,32.2z"/>
		<path fill="#FFFFFF" d="M122.9,43.8V51h-1.8V22.3h1.6l0.2,2.5h0.1c1-0.8,2-1.5,3.1-2.1c1.1-0.6,2.3-0.9,3.6-0.9
			c2.6,0,4.6,0.9,5.9,2.7c1.3,1.8,2,4.3,2,7.3c0,1.7-0.2,3.2-0.7,4.5c-0.5,1.3-1.1,2.4-1.9,3.4c-0.8,0.9-1.7,1.6-2.8,2.1
			c-1.1,0.5-2.2,0.7-3.3,0.7c-0.9,0-1.9-0.2-2.9-0.6c-1-0.4-2-1-3-1.8V43.8z M122.9,38.4c1.2,0.9,2.2,1.6,3.2,2
			c1,0.4,1.9,0.6,2.6,0.6c1,0,1.9-0.2,2.8-0.7c0.9-0.4,1.6-1.1,2.2-1.9c0.6-0.8,1.1-1.8,1.4-2.9c0.3-1.1,0.5-2.3,0.5-3.7
			c0-1.2-0.1-2.3-0.4-3.4c-0.2-1-0.6-1.9-1.1-2.7c-0.5-0.8-1.1-1.3-1.9-1.8c-0.8-0.4-1.8-0.6-2.9-0.6c-1,0-2,0.3-3.1,0.8
			c-1.1,0.6-2.2,1.4-3.4,2.4V38.4z"/>
		<path fill="#FFFFFF" d="M141.9,32.2c0-1.6,0.2-3.1,0.7-4.4c0.5-1.3,1.1-2.4,1.9-3.3c0.8-0.9,1.7-1.6,2.8-2.1
			c1-0.5,2.1-0.7,3.2-0.7c2.4,0,4.2,0.8,5.6,2.4c1.3,1.6,2,3.8,2,6.8c0,0.2,0,0.5,0,0.7s0,0.5-0.1,0.7h-14.2c0,1.2,0.2,2.4,0.6,3.4
			c0.4,1.1,0.9,2,1.5,2.7c0.6,0.8,1.4,1.3,2.3,1.8c0.9,0.4,1.9,0.6,3,0.6c1.1,0,2-0.2,2.9-0.5c0.9-0.3,1.7-0.7,2.4-1.3l0.7,1.4
			c-0.8,0.5-1.7,0.9-2.6,1.3c-0.9,0.4-2.1,0.6-3.6,0.6c-1.3,0-2.4-0.2-3.6-0.7c-1.1-0.5-2.1-1.1-2.9-2c-0.8-0.9-1.5-2-2-3.3
			C142.1,35.2,141.9,33.8,141.9,32.2z M156.3,31c0-2.6-0.5-4.5-1.6-5.7c-1-1.3-2.5-1.9-4.2-1.9c-0.9,0-1.7,0.2-2.4,0.5
			c-0.8,0.4-1.5,0.9-2.1,1.5s-1.1,1.5-1.5,2.4c-0.4,0.9-0.7,2-0.8,3.2H156.3z"/>
		<path fill="#FFFFFF" d="M161.7,32.2c0-1.6,0.2-3,0.7-4.3c0.5-1.3,1.1-2.4,1.9-3.3c0.8-0.9,1.7-1.6,2.8-2.1
			c1.1-0.5,2.2-0.7,3.4-0.7c1.2,0,2.3,0.2,3.1,0.6c0.9,0.4,1.8,1,2.8,1.8l-0.1-3.6v-8.2h1.8V42h-1.6l-0.2-2.6h-0.1
			c-0.8,0.8-1.7,1.5-2.8,2.1c-1.1,0.6-2.3,0.9-3.6,0.9c-2.5,0-4.5-0.9-6-2.7C162.5,38.1,161.7,35.5,161.7,32.2z M163.7,32.2
			c0,1.3,0.1,2.5,0.4,3.6s0.7,2,1.3,2.7c0.5,0.8,1.2,1.3,2,1.8c0.8,0.4,1.7,0.6,2.8,0.6c1.1,0,2.1-0.3,3.1-0.8c1-0.6,2-1.4,3.1-2.4
			V25.9c-1-0.9-2-1.6-2.9-2c-0.9-0.4-1.9-0.6-2.8-0.6c-1,0-1.9,0.2-2.8,0.7c-0.9,0.5-1.6,1.1-2.2,1.9c-0.6,0.8-1.1,1.7-1.5,2.8
			C163.9,29.8,163.7,30.9,163.7,32.2z"/>
		<path fill="#FFFFFF" d="M194,12.4h1.8V21l-0.1,3.9c1-0.9,2.1-1.6,3.3-2.2c1.2-0.6,2.3-0.9,3.6-0.9c2.6,0,4.6,0.9,5.9,2.7
			c1.3,1.8,2,4.3,2,7.3c0,1.7-0.2,3.2-0.7,4.5c-0.5,1.3-1.1,2.4-1.9,3.4c-0.8,0.9-1.7,1.6-2.8,2.1c-1.1,0.5-2.2,0.7-3.3,0.7
			c-1,0-2-0.2-3-0.6s-2-1-2.9-1.7h-0.1l-0.2,1.9H194V12.4z M195.8,38.4c1.1,0.9,2.2,1.6,3.2,2c1,0.4,1.9,0.6,2.7,0.6
			c1,0,1.9-0.2,2.8-0.7c0.9-0.4,1.6-1.1,2.2-1.9c0.6-0.8,1.1-1.8,1.4-2.9c0.3-1.1,0.5-2.3,0.5-3.7c0-1.2-0.1-2.3-0.4-3.4
			c-0.2-1-0.6-1.9-1.1-2.7c-0.5-0.8-1.1-1.3-1.9-1.8c-0.8-0.4-1.8-0.6-2.9-0.6c-1,0-2,0.3-3.1,0.8c-1.1,0.6-2.2,1.4-3.4,2.4V38.4z"
			/>
		<path fill="#FFFFFF" d="M214.7,49.2c0.3,0.1,0.6,0.1,0.9,0.1c1.2,0,2.3-0.5,3.1-1.5c0.8-1,1.5-2.2,2-3.7l0.5-1.7l-8.1-20.1h2
			l4.8,12.4c0.3,0.8,0.6,1.7,1,2.7c0.4,1,0.7,1.9,1.1,2.8h0.2c0.3-0.9,0.6-1.8,0.9-2.8c0.3-1,0.6-1.9,0.9-2.7l4.2-12.4h1.9
			l-7.8,22.2c-0.3,0.8-0.6,1.6-1,2.4s-0.9,1.5-1.4,2.1c-0.5,0.6-1.2,1.1-1.9,1.5s-1.5,0.6-2.4,0.6c-0.7,0-1.4-0.1-2-0.4L214,49
			C214.2,49.1,214.5,49.2,214.7,49.2z"/>
	</g>
</g>
<g id="Layer_1_copy_3" display="none">
</g>
<g id="hidden">
</g>
</svg>
