<?xml version="1.0" encoding="utf-8"?>
<!-- Generator: Adobe Illustrator 21.0.2, SVG Export Plug-In . SVG Version: 6.00 Build 0)  -->
<svg version="1.1" id="Layer_1" xmlns="http://www.w3.org/2000/svg" xmlns:xlink="http://www.w3.org/1999/xlink" x="0px" y="0px"
	 viewBox="0 0 177.8 89.2" style="enable-background:new 0 0 177.8 89.2;" xml:space="preserve">
<style type="text/css">
	.st0{clip-path:url(#SVGID_2_);}
	.st1{fill:url(#SVGID_3_);}
	.st2{fill:#FFFFFF;}
</style>
<title>esgGroup</title>
<g>
	<defs>
		<path id="SVGID_1_" d="M89.9,65.8c-0.3-0.5-0.8-0.9-1.3-1.2l-1.2,1.6c0.5,0.3,1,0.7,1.4,1.2L89.9,65.8c0.5,0.4,1,0.8,1.3,1.3
			l1.1-1.5c-0.3-0.5-0.8-1-1.3-1.3L89.9,65.8z M82.2,35.1c0.4,0.3,0.7,0.6,1,0.9l-0.9,1.2c0.4,0.3,0.8,0.6,1.1,1l0.9-1.1
			c-0.2-0.4-0.6-0.8-1-1l0.9-1.1c-0.2-0.4-0.6-0.8-1-1L82.2,35.1z M70.4,33.4c-0.4-0.6-0.9-1-1.5-1.4l-1.3,1.7
			c0.6,0.3,1.1,0.8,1.5,1.3L70.4,33.4c0.5,0.4,1,0.8,1.4,1.4l1.2-1.6c-0.4-0.6-0.9-1.1-1.4-1.4L70.4,33.4z M74.1,59
			c-0.2-1,0.1-2,0.8-2.7c0.6-0.5,1.3-0.9,2-1.2c0.1,0.5,0.1,1,0,1.6c-0.1,1.5-0.8,2.9-1.9,3.8C74.5,60.1,74.2,59.6,74.1,59
			 M88.6,56.2c0.6-0.4,1.2-0.8,1.8-1.3l-0.3,1.9c0,0,0.1,0.2,0.2,0.5c-2.1,1.3-4.7,2.1-5.9,0.8c-0.3-0.4-0.6-0.9-0.7-1.4
			c1.4,0.4,2.8,0.3,4.2-0.2c-0.1,0.3-0.4,1.4-0.3,1.4l0,0C88.1,57.4,88.4,56.8,88.6,56.2 M75,60.6c1.2-0.8,2.1-2,2.5-3.4
			c0.2-0.8,0.2-1.6,0.2-2.4l0.7-0.3l0.5-0.3l0.5,0.2c0.6,0.3,1.2,0.6,1.8,1h0c0,0-0.5,0-1.9,0c-0.2,0-1.2,0-1.1,0.1
			c0.2,0.1,0.3,0.1,0.5,0.1c0.8,0.2,1.6,0.5,1.7,0.5c0.5-0.1,0.9-0.2,1.3-0.5l0.6-0.3c0.2,0.4,0.5,0.8,0.9,1.1
			c-0.3,2.4,0,4.8,2.8,4.6c1.9-0.3,3.6-1,5.1-2.2c0.3,0.7,0.5,1.5,0.6,2.3c-0.2,0.7-0.8,1.3-1.6,1.5c-0.5,0.1-0.9-0.3-1-0.7
			c0-0.1,0-0.2,0-0.4c0-0.1,0-0.3,0-0.4c-0.2,0-0.4,0.4-0.5,0.7S88,63,86.8,62.8c-0.4,0-0.8-0.4-0.8-0.8c0-0.1,0.1-0.2,0.1-0.3
			c0.1-0.2,0.3-0.5,0.3-0.6c-0.3,0.1-0.5,0.3-0.7,0.5c-0.6,0.6-1.5,0.8-2.2,0.4c-0.9-0.6-1.4-1.6-1.2-2.7c0.2-1.5,0.6-2.6,0.1-2.9
			c-0.7-0.5-2.8-0.2-3.7,0.4c-0.8,0.4-1.4,1.2-1.6,2.1c-0.1,0.4,0.1,0.8,0.4,1.1c0.6,0.7,1.8,1.8,1.4,2.5
			C77.4,62.2,76.1,61.5,75,60.6 M90.6,54.8c0.7-0.6,1.4-1.3,2-2c0.2-0.3,0.3-0.3,0.4-0.3s0,0.1,0,0.2c0,0.9,0.3,1.7,0.8,1.9
			c-0.7,0.7-1.5,1.4-2.3,2.1C91.2,56,90.9,55.3,90.6,54.8 M94.5,57c0.3-0.8,2.7-0.2,3.5-0.9c0.7-0.9,1.1-2,1.2-3.1
			c0.1-0.3,0.1-0.7,0.1-1c0.6,0.9,1.2,1.6,2,2.3c-0.3,0.2-0.6,0.4-0.9,0.6c-0.7,0.6-1.4,1.4-2,2s-0.6,0.6-0.9,0.7
			c-0.3,0.1-0.7,0.1-1,0.1C95.7,57.8,95,57.5,94.5,57 M80.3,53c0.5-0.4,0.8-0.9,1.1-1.5c0,0.4,0,0.7,0.1,1c0,0.4,0.1,0.7,0.2,1.1
			C81.3,53.4,80.8,53.2,80.3,53 M94,49.2c1,0.1,1.9,0.8,2.3,1.8c0,0-0.8,1.3-1.9,1.4c-0.8,0.1-0.9-1-0.9-1.4c0-0.2,0-0.5,0-0.5
			s-0.7,0.4-0.9,0.5c-1,1-2,1.9-3.1,2.8C89.6,53.8,91.4,48.9,94,49.2 M89.7,48.7c-0.2,1.3-0.8,2.4-1.7,3.4c-0.9,1-1.8,1.9-2.8,2.7
			c-0.4,0-0.8-0.2-1.1-0.3c0.2-0.7,0.6-1.3,1.1-1.9C86.5,51.1,88,49.9,89.7,48.7L89.7,48.7 M81.5,47.6c0,0.3,0,0.6,0,1.1l0,0
			c0,0.9,0,1.8,0,2.4c-0.7,1.2-1.7,2.1-2.9,2.6c-0.3,0.1-0.6,0.2-0.9,0.4c0-0.3-0.1-0.5-0.2-0.8c0.2-0.1,0.3-0.2,0.5-0.3
			c0.8-0.4,1.5-1,2-1.8c0.4-0.7,0.7-1.5,1-2.3C81,48.5,81.2,48,81.5,47.6L81.5,47.6 M93.5,61c-0.6-0.1-1.1-0.8-1.2-1.4
			s-0.3-1.1-0.4-1.6h0.1c0.9-1,1.7-2.1,2.2-3.3c1.1-0.3,2.1-1.1,2.4-2.2c0.2-0.8,0.3-1.5,0.3-2.3c0.2-1.4-0.8-2.7-2.2-3
			c0.2-0.2,0.5-0.5,0.8-0.7c0.9,1.4,1.8,2.8,2.5,3.9c0.4,0.6,0.7,1.1,1.1,1.6c-0.1,0.4-0.2,1.7-0.8,2.1c-0.8,0.6-2.5,0.4-3.3,0.7
			c-1,0.3-1.5,2.9-1.5,4s2.2,1,2.2,1S94.5,60.9,93.5,61L93.5,61 M86.9,46.1c0.7-0.2,1.4-0.3,1.5-0.3c0.3-0.2,0.6-0.5,0.9-0.9
			c0.2-0.2,0.3-0.5,0.5-0.7c0,0.5,0,1,0,1.6c-1.1,0.6-2.3,1.1-3.6,1.4c0.2-0.8,0.3-1.5,0.3-2.3l0,0c0,0,0.3-0.1,0.5-0.1
			c0.6-0.1,1.2,0,1.8,0.1l0,0c0,0-0.3,0.2-1.5,0.8c-0.2,0.1-0.9,0.5-0.9,0.5l0,0C86.6,46.2,86.7,46.1,86.9,46.1 M82.9,53.5
			c-0.6-0.9-0.8-1.8-0.8-4.1c0-0.8,0-1.8,0-2.7c1-0.8,1.8-1.8,2.5-2.8c0.4-0.3,0.7-0.7,0.8-1.1c0.2-0.4,0.3-0.8,0.3-1.2
			c0,0.9,0.1,1.8,0.1,2.7c0,0.3,0.1,1.7,0,2c0,0-1.6,0.8-2.6,1.5c-0.5,0.8-0.9,1.7-1.1,2.7c0,0,0,0.2,0,0.2s0.2-0.2,0.3-0.2
			c0.6-0.3,1.1-0.5,1.8-0.6c0.6-0.2,3-0.9,3-0.9c-1.6,1.4-2.9,3.2-3.7,5.2C83.3,54,83.1,53.7,82.9,53.5 M82.9,41.5
			c0,0,0.4-1.4,0.8-1.4c0.3-0.1,0.7,0.3,0.8,1.1c0,0.4-0.2,0.8-0.5,1.1c-0.1,0-0.2,0-0.2,0C83.3,42.2,83,41.9,82.9,41.5 M90.5,43.9
			c0,0,0-1.7-0.1-4.4c1.9,2,3.5,4.2,5,6.4c-0.4,0.4-0.7,0.8-0.9,1c-0.2,0-0.3,0-0.5,0c-2.8,0.2-5.3,7.2-5.3,7.2
			c-1,0.4-2,0.6-3.1,0.7c1.2-0.6,2.3-1.4,3.1-2.5c0.7-1.3,1.2-2.6,1.4-4.1c1.1-0.8,2.1-1.7,3-2.7l0.3-2.2c-0.3,0.2-0.6,0.4-0.9,0.7
			c-0.7,0.5-1.4,1-2.1,1.4C90.4,44.5,90.4,43.8,90.5,43.9 M87.9,42.1c-0.2-0.3-0.4-0.7-0.3-1.1c0-0.4,0.1-0.9,0.3-1.3
			c0.2-0.5,0.4-1.1,0.5-1.5c0-0.1,0.1-0.3,0.2-0.5l0.9,0.8l0,0c0.1,1,0.1,2.1,0.2,3.2l0,0l0.1,1.9l0,0c-0.5-0.1-1-0.2-1.5-0.2
			c0.3-0.2,0.4-0.5,0.6-0.8c0.2-0.6,0.3-1.1,0.3-1.7c0-0.1-0.4,1.1-0.5,1.1c0,0.1,0,0.1-0.1,0.2c-0.1,0-0.1,0-0.2,0
			C88.2,42.2,88,42.2,87.9,42.1 M69.6,52c-5.8-1-13-4.4-15.9-10.1c2.4-1.8,5-3.3,7.8-4.5c0.5-0.2,0.9-0.3,1.4-0.4
			c0.1,2.1,1,4.2,2.4,5.8c1.8,2,4.3,3.4,7,3.9c2.1,0.5,4.2,0.2,6.1-0.7c1.4-0.8,2.5-2.1,3-3.7c0,1,0,2,0.1,3c-0.2,0.3-0.4,0.6-0.5,1
			c-0.2,0.6-0.3,1.5-0.6,2.6c-0.2,0.8-0.7,2.3-3.5,3.1c-1.2,0.3-2.4,0.5-3.6,0.5C72,52.4,70.7,52.3,69.6,52 M73.9,45
			c-3.7-0.5-8.5-2.7-9-8.2c0.5,0,0.8,0.1,1.1,0.1c2.3,0.2,5,2.9,7.5,4.4c1,1.4,2.3,2.5,3.8,3.3l0.1-2.2l-0.3-0.2
			c0.8-0.3,1.4-0.8,1.9-1.5c0.4-0.7,1-1.2,1.7-1.7l0.4-1.7c0.1,1.5,0.1,3,0.2,4.6l0,0c-0.7,1.4-1.8,2.5-3.3,3
			c-0.7,0.2-1.4,0.4-2.2,0.3C75.2,45.2,74.5,45.2,73.9,45 M86.6,43.3c0-1-0.1-1.6-0.1-2c0-1.7-0.1-3.5-0.2-5.6
			c0.7,0.5,1.4,1.2,2.2,1.8c-0.2,0.6-0.5,1.2-0.8,1.9c-0.4,0.8-0.6,1.7-0.7,2.6c0,0.6,0.2,1.1,0.6,1.5c-0.1,0-0.2,0-0.3,0.1
			c0,0-0.2,0-0.7,1.2C86.5,44.3,86.5,43.8,86.6,43.3 M73.9,35.3c-0.3,1.2-0.4,2.4-0.2,3.5l-0.3-0.2c-0.1-0.1-0.1-0.3-0.2-0.4
			C73,37.4,73.4,36.5,73.9,35.3L73.9,35.3 M90.2,37.2c0-0.7-0.1-1.4-0.1-2.2c2.5,2.7,4.8,5.6,6.9,8.7c-0.2,0.3-0.3,0.6-0.6,0.9
			C94.6,41.9,92.5,39.4,90.2,37.2 M76.3,36.2c-0.3,0-0.7-0.3-0.9-1c0.1-0.6,0.6-1.2,1-1.1c0.2,0,0.4,0.2,0.6,0.4l-0.1,1.3
			c0.1,0.1,0.1,0.1,0.2,0.2c-0.1,0.2-0.3,0.3-0.5,0.3h-0.1 M81.9,32.8c1,0.6,2,1.2,3,1.9c0.3,0.8,0.5,1.6,0.6,2.4
			c0.2,1.4,0,2.8-0.5,4.1c0,0,0.4-3.2-0.9-3.2s-2.2,5.2-1,5.7c0,0-0.3,0.3-0.8,0.9C82.2,41.4,82.1,37.2,81.9,32.8 M88.5,35.7
			c-0.7-0.6-1.5-1.1-2.3-1.7c-0.1-1-0.1-2-0.2-3c1.1,0.9,2.2,1.9,3.2,2.9l0.2,2.4L88.5,35.7 M76.2,40c-0.2,0-0.4,0-0.6-0.1h-0.1
			c-0.4-0.1-0.7-0.4-0.9-0.7c-0.9-1.4-0.5-3.6-0.4-3.9c0-0.2,0.1-0.4,0.1-0.6c0.3-0.9,0.5-1.8,0.4-2.8c-0.1-0.6-0.2-1.1-0.3-1.7
			c2.3,0.3,4.5,1,6.6,2c0.1,1.5,0.2,3.1,0.2,4.8c-0.9,0.5-1.6,1.9-2.8,2.6c0.2-0.7,0.3-1.3,0.4-2c0.4-3.1-0.6-5.8-2-5.8
			S75,34.8,75,34.8c-0.1,0.6-0.1,1.2,0,1.8c0.1,0.9,0.5,1.8,1.3,1.8c1.6,0,1.3-3.3,1.3-3.3c0.6,0.7,0.8,1.6,0.8,2.6
			c-0.1,0.6-0.8,2.3-2.2,2.3L76.2,40 M72.5,30.2c0.9,1.3,1.4,2.9,1.1,4.5c-0.5,1.1-0.8,2.2-1,3.3c-0.6-0.4-1.2-0.9-1.8-1.3
			c-1.3-1-2.8-1.6-4.3-1.7c-0.5,0-1,0.1-1.5,0.2C65.5,32.1,68.8,30.5,72.5,30.2 M81.8,31.6c0-0.5,0-1-0.1-1.5c0.7,0.8,1.4,1.6,2,2.4
			C83.1,32.2,82.4,31.9,81.8,31.6 M83.7,29.6l-0.8-0.8c0.7,0.5,1.4,1,2.1,1.5c0,0.4,0.1,0.9,0.1,1.3C84.7,30.9,84.2,30.3,83.7,29.6
			 M85.8,29.1l-0.1-0.8c0.7,0.7,1.5,1.6,2.1,2.3C87.1,30.1,86.5,29.6,85.8,29.1 M90,32.6c-0.1-1.8-0.2-3.8-0.4-5.9
			c0.5,0.5,1,1.2,1.5,1.8c2.2,2.5,4.1,5.3,5.7,8.2c0.8,1.5,1.1,3.3,0.9,5C95.5,38.4,92.9,35.4,90,32.6 M52.4,36.7
			c0-3.2,1.3-6.2,3.8-8.3c3.1-2.7,7.6-3.7,12-3.7c3.5,0,7,0.7,10.3,1.9c0.5,0.6,1.2,1.3,2,2.2l0.3,0.3c0,0.7,0.1,1.4,0.2,2.2
			c-2.2-0.9-4.5-1.4-6.8-1.6c-0.4-1-0.9-2-1.6-2.9l-0.7,2.6l0.2,0.3c-0.5,0-0.9,0-1.4,0.1c-5.1,0.5-7.4,3.1-7.8,6.1
			c-3.4,1.4-6.6,3.3-9.6,5.5C52.7,39.9,52.4,38.3,52.4,36.7 M78.4,23.2c0.4-0.4,0.8-0.8,1.2-1.2l0.3-1.4c0.2,1.5,0.4,3.2,0.6,5.3
			C79.7,25.1,79,24.2,78.4,23.2 M82.2,21.4c0.4-0.5,0.9-0.9,1.3-1.4l0.3-1.5c0.2,1.6,0.4,3.5,0.6,5.7C83.7,23.3,82.9,22.4,82.2,21.4
			 M86.2,19.2c-0.1-0.1-0.1-0.3-0.1-0.4c0-0.3,1.2-1.1,1.2-1.1l0.3-1.7c0.2,1.7,0.4,3.7,0.7,6C87.4,21.1,86.7,20.2,86.2,19.2
			 M85.7,5.7c0,0,0.8,2.2,1.8,9.7c-0.7,1-2.3,3.9-2.2,5.3c0.1,1.1,1.1,2.2,3.3,4.7c0.1,1.1,0.2,2.3,0.3,3.5c-0.3-0.5-0.7-1-1.2-1.4
			c-0.8-0.8-1.5-1.5-2.1-2.2c-0.6-7-1.4-14.1-2.7-18.4l-0.7,2.3c0,0,0.8,1.9,1.6,8.7c-0.7,1-2.5,3.8-2.4,5.2c0,0.7,1.2,1.7,3.1,3.9
			l0.3,0.3l0.2,1.3c-0.6-0.3-1.1-0.7-1.7-0.9c-0.6-0.3-1.1-0.5-1.7-0.8c-0.5-6.3-1.2-12.4-2.3-16.3l-0.7,2.3
			c0.7,2.3,1.2,4.8,1.4,7.2c-0.8,1-2.6,3.6-2.5,4.6c0.1,0.3,0.2,0.6,0.3,0.8C69.5,23.2,60.9,24,56.2,27c-6.4,4.1-6.8,10.1-5.1,14.7
			c0.1,0.3,0.2,0.6,0.4,0.9c-1.9,1.5-3.4,2.7-4,3.3c-0.4,0.5-0.7,1.1-1,1.7c0,0.1,0,0.1,0,0.1c1.6-1.4,3.5-3,5.3-4.4
			c2.1,3.6,5.3,6.5,9.1,8.3c4.1,2,8.7,2.9,13.3,2.6c1-0.1,2-0.4,3-0.8l-0.5,0.5l0,0c0,0.2,0.1,0.3,0.1,0.5c-0.9,0.4-1.8,0.9-2.6,1.5
			c-1.1,0.9-1.8,2.3-1.9,3.7c0,0.6,0.2,1.3,0.6,1.8c1,1.4,4.2,2.5,5.3,2.1c0.9-0.3,2.2-1.5,2.2-2.4c-0.1-1.4-2.1-2.4-2-3.4
			c0,0,0.2-0.2,1.7-0.2c0.3,0,0.6,0.1,0.8,0.3c0.1,0.2,0.2,0.5,0.2,0.8c0,0.4-0.1,0.9-0.2,1.5s-0.3,3.1,1.3,3.8
			c0.7,0.3,1.6,0.3,2.3-0.2c0.4-0.2,0.6-0.5,0.7-0.5s-0.2,1.5,1.1,1.7s1.9-1.7,2-1.7s0.1,1.3,1.1,1.5s2-1.1,2.2-1.6
			c0.1-0.5,0.2-1.1,0.2-1.6c0.1,0.1,0.4,2,2.1,1.5c1.4-0.4,3.2-2.9,4.8-4.7c0.6-0.8,1.4-1.4,2.3-1.9c0,0,0.3-1.3,0.4-1.8l0.1,0.1
			c2.2,1.6,5.1,1.5,6.8,1.6c2.6,0.1,5.1,0.3,7.7,0.7c3.3,0.4,6.5,1.4,9.5,2.8l3.1-0.2c-1.6-0.9-3.3-1.6-5-2.1
			c-2.4-0.7-4.9-1.2-7.4-1.6c-5-0.7-9.4-0.8-11.9-1.8c-3-1.2-4.9-5.4-6.9-8.3l-0.5-0.7c0.2-0.3,0.4-0.6,0.6-0.8
			c1.2,1.7,2.3,3.5,3.4,5.2c1.1,2.1,2.8,3.7,5,4.5c2.1,0.6,4.3,0.9,6.5,1c1.4,0.1,2.8,0.3,4.2,0.5c5.5,0.8,10.4,2,12.7,3.9l3-0.1
			c-2-1.2-4.2-2.2-6.4-3c-3-0.8-6.1-1.5-9.2-1.9c-1.8-0.2-5.8-0.5-8.3-1.1c-1.4-0.4-2.7-1.1-3.8-2.1c-1.1-1-2-2.2-2.7-3.5
			c-1-1.6-2.1-3.4-3.5-5.3v-0.1c0.8-1.9,0.8-4,0.2-6c-0.9-2.8-3.7-6.5-7.3-10.7c-0.7-0.9-1.4-1.6-1.9-2.3c-0.7-7.5-1.6-15.6-2.9-20
			L85.7,5.7z"/>
	</defs>
	<clipPath id="SVGID_2_">
		<use xlink:href="#SVGID_1_"  style="overflow:visible;"/>
	</clipPath>
	<g class="st0">
		
			<linearGradient id="SVGID_3_" gradientUnits="userSpaceOnUse" x1="2230.6753" y1="-2345.9553" x2="2232.9553" y2="-2345.9553" gradientTransform="matrix(12.78 -22.14 23.67 12.08 27094.8848 77787.8906)">
			<stop  offset="0" style="stop-color:#C59939"/>
			<stop  offset="0.13" style="stop-color:#C59939"/>
			<stop  offset="0.24" style="stop-color:#F6E278"/>
			<stop  offset="0.79" style="stop-color:#B27D24"/>
			<stop  offset="1" style="stop-color:#FFEE82"/>
		</linearGradient>
		<polygon class="st1" points="17.9,52.7 65.9,-30.4 160.7,17.9 112.7,101.1 		"/>
	</g>
</g>
<g>
	<polygon class="st2" points="8.1,79.4 8.1,80.8 3.3,80.8 3.3,82 5.8,82 5.8,83.4 3.3,83.4 3.3,84.9 8.2,84.9 8.2,86.3 1.9,86.3 
		1.9,79.4 	"/>
	<path class="st2" d="M12.6,81.1H14l2.5,5.2h-1.2l-0.5-1.1h-3l-0.5,1.1h-1.2L12.6,81.1z M12.3,84.2h2l-1-2L12.3,84.2z"/>
	<path class="st2" d="M18.3,84.7c0.8,0.5,1.7,0.8,2.7,0.8c0.5,0,1.4-0.1,1.4-0.7c0-0.4-0.5-0.5-0.8-0.5L20,84.2
		c-1.3,0-1.9-0.8-1.9-1.6s0.6-1.6,2.4-1.6c0.9,0,1.7,0.2,2.5,0.7l-0.5,0.9c-0.7-0.4-1.4-0.6-2.2-0.6c-0.5,0-1.2,0.1-1.2,0.6
		s0.6,0.5,0.9,0.5l1.4,0.1c1.2,0,2,0.5,2,1.6c0,0.9-0.8,1.7-2.4,1.7c-1.1,0.1-2.2-0.3-3.2-0.9L18.3,84.7z"/>
	<path class="st2" d="M27.2,81.1h1.4l2.6,5.2h-1.2l-0.5-1.1h-3l-0.5,1.1h-1.2L27.2,81.1z M26.9,84.2h2l-1-2L26.9,84.2z"/>
	<path class="st2" d="M38.8,84.1c1.1,0.7,2.3,1.1,3.6,1.1c0.7,0,1.9-0.2,1.9-1c0-0.6-0.6-0.7-1-0.7l-2.1-0.1c-1.7,0-2.5-1-2.5-2.1
		s0.8-2.1,3.2-2.1c1.2,0,2.3,0.3,3.3,0.9l-0.6,1.2c-0.9-0.5-1.9-0.7-2.9-0.8c-0.7,0-1.6,0.2-1.6,0.8s0.8,0.7,1.2,0.7L43,82
		c1.6,0,2.6,0.7,2.6,2.2c0,1.2-1,2.3-3.3,2.3c-1.5,0.1-3-0.3-4.2-1.2L38.8,84.1z"/>
	<path class="st2" d="M83.9,79.4h1.8l3.4,6.9h-1.6l-0.7-1.5h-4l-0.7,1.5h-1.6L83.9,79.4z M83.5,83.4h2.7l-1.3-2.7L83.5,83.4z"/>
	<path class="st2" d="M105,82.3h3.1v2.9c-0.9,0.9-2.2,1.4-3.5,1.3c-2.1,0.2-3.9-1.4-4.1-3.5c0-0.1,0-0.1,0-0.2
		c0-1.8,1.4-3.6,4.1-3.6c1.2,0,2.3,0.3,3.3,0.9l-0.9,1.3c-0.7-0.6-1.6-0.9-2.5-0.9c-1.3-0.2-2.5,0.8-2.7,2.1c0,0,0,0.1,0,0.1
		c0,1.3,0.9,2.3,2.7,2.3c0.7,0,1.4-0.2,2.1-0.6v-0.8H105L105,82.3z"/>
	<path class="st2" d="M140.9,82.4h3.1v2.9c-0.9,0.9-2.2,1.3-3.4,1.2c-2.1,0.1-3.9-1.5-4.1-3.6c0-0.1,0-0.1,0-0.2
		c0-1.8,1.4-3.6,4.1-3.6c1.2,0,2.3,0.3,3.3,0.9l-0.8,1.4c-0.7-0.6-1.7-0.9-2.6-0.9c-1.3-0.2-2.5,0.8-2.7,2.1c0,0,0,0.1,0,0.1
		c0,1.3,0.9,2.3,2.7,2.3c0.7,0,1.4-0.2,2.1-0.6v-0.8h-1.7V82.4z"/>
	<path class="st2" d="M49.8,81.3h1.3l2.5,5.1h-1.2L52,85.3H49l-0.5,1.1h-1.1L49.8,81.3z M49.5,84.3h2l-1-2L49.5,84.3z"/>
	<polygon class="st2" points="56.3,81.3 56.3,85.3 59.2,85.3 59.2,86.4 55.3,86.4 55.3,81.3 	"/>
	<polygon class="st2" points="66,81.3 66,82.3 62.5,82.3 62.5,83.2 64.4,83.2 64.4,84.3 62.5,84.3 62.5,85.3 66.1,85.3 66.1,86.4 
		61.5,86.4 61.5,81.3 	"/>
	<polygon class="st2" points="69.8,81.3 69.8,83.2 72.6,83.2 72.6,81.3 73.6,81.3 73.6,86.4 72.6,86.4 72.6,84.2 69.8,84.2 
		69.8,86.4 68.8,86.4 68.8,81.3 	"/>
	<polygon class="st2" points="91.6,81.3 91.6,85.3 94.5,85.3 94.5,86.4 90.6,86.4 90.6,81.3 	"/>
	<path class="st2" d="M111.5,81.3v3c0,0.6,0.2,1.1,1.4,1.1s1.5-0.6,1.5-1.1v-3h1v3c0,1.1-0.5,2.1-2.5,2.1c-1.8,0-2.4-0.9-2.4-2.1v-3
		H111.5z"/>
	<path class="st2" d="M121.6,81.3c0.9,0,1.8,0.4,1.8,1.5c0,0.7-0.5,1.3-1.1,1.5l1.3,2.1h-1.3l-1.3-2.1h-1.6v2.1h-1v-5H121.6z
		 M119.5,82.3v1h2.2c0.3,0,0.8,0,0.8-0.5s-0.5-0.5-0.8-0.5H119.5z"/>
	<path class="st2" d="M128.6,83.5h2.3v2.1c-0.7,0.7-1.6,1-2.5,0.9c-1.5,0.1-2.9-1.1-3-2.6c0,0,0-0.1,0-0.1c0-1.3,1-2.6,3-2.6
		c0.8,0,1.7,0.2,2.4,0.6l-0.6,1c-0.5-0.4-1.2-0.6-1.9-0.6c-1-0.1-1.8,0.6-2,1.5c0,0,0,0.1,0,0.1c0,1,0.7,1.7,2,1.7
		c0.5,0,1.1-0.2,1.5-0.5v-0.6h-1.3V83.5z"/>
	<path class="st2" d="M150.8,81.3c0.9,0,1.8,0.4,1.8,1.5c0,0.7-0.5,1.3-1.1,1.5l1.3,2.1h-1.3l-1.3-2.1h-1.6v2.1h-1v-5.1H150.8z
		 M148.7,82.4v1h2.2c0.3,0,0.8,0,0.8-0.5c0-0.5-0.5-0.5-0.8-0.5H148.7z"/>
	<path class="st2" d="M154.8,83.9c0-1.4,1.1-2.7,3.1-2.7c2,0,3.1,1.2,3.1,2.7c0,1.5-1.1,2.7-3.1,2.7S154.8,85.3,154.8,83.9
		 M160,83.9c0-0.9-0.8-1.7-2.1-1.7s-2.1,0.8-2.1,1.7c0,0.9,0.8,1.7,2.1,1.7S160,84.8,160,83.9"/>
	<path class="st2" d="M164.8,81.3v3.1c0,0.6,0.2,1.1,1.4,1.1c1.3,0,1.5-0.6,1.5-1.1v-3.1h1v3.1c0,1.1-0.5,2.1-2.5,2.1
		c-1.8,0-2.4-0.9-2.4-2.1v-3.1H164.8z"/>
	<path class="st2" d="M175,81.3c1,0,1.8,0.4,1.8,1.6c0,1.2-0.8,1.6-1.8,1.6h-2v1.8h-1v-5.1H175z M173,83.5h2c0.4,0,0.8-0.1,0.8-0.6
		c0-0.6-0.4-0.6-0.8-0.6h-2V83.5z"/>
</g>
</svg>
