<svg id="Layer_1" data-name="Layer 1" xmlns="http://www.w3.org/2000/svg" viewBox="0 0 144.48 59.27"><defs><style>.cls-1,.cls-2{fill:#52337e;}.cls-1{fill-rule:evenodd;}</style></defs><title>logo</title><path class="cls-1" d="M279.59,366.67h.67c4.89.36,7.46,3,8.2,7.55v44.35c-.41,4.5-2.73,7.08-7.35,7.37h-.94c-2.18-.1-4.43-.05-6.67-.06h-30.2a18.7,18.7,0,0,1-3.17-.11c-3.76-.67-5.88-3.13-6.07-7.33V374.3h0c.34-4,2.49-6.49,6-7.31a30,30,0,0,1,6.35-.3c11,0,22.24,0,33.2,0m-39.92,1.8a6.39,6.39,0,0,0-2.17,1.22,6.61,6.61,0,0,0-2.13,4.65c0,1.14,0,2.27,0,3.39V415c0,1.16,0,2.32,0,3.39.06,3.28,1.6,5.19,4.24,5.93a10.15,10.15,0,0,0,3,.28c1.09,0,2.25,0,3.39,0h30.5c1.14,0,2.28-.06,3.39,0a6.83,6.83,0,0,0,5.26-1.48,6.51,6.51,0,0,0,2-4.81c0-14.07,0-28.34,0-42.35a16.17,16.17,0,0,0,0-1.69,7.85,7.85,0,0,0-.78-2.61,6.81,6.81,0,0,0-6.48-3.68h-30.5c-2.26,0-4.54-.09-6.78,0a10.53,10.53,0,0,0-2.93.46" transform="translate(-234.05 -366.67)"/><path class="cls-1" d="M243.65,370.82c2-.11,4.06,0,6.09,0h27.44A13.11,13.11,0,0,1,280,371a5.48,5.48,0,0,1,4.35,4.8,17.58,17.58,0,0,1,.13,2.91v36.59a10.33,10.33,0,0,1-.22,2.83c-.68,2.27-2.45,3.72-5.41,3.72H245.35a17.17,17.17,0,0,1-2.94-.09A5,5,0,0,1,238,417c-.07-.93,0-1.94,0-3V377.37a8.67,8.67,0,0,1,.31-2.74,5.47,5.47,0,0,1,5.35-3.81m2.37,11h7.89c-3.92,6.58-7.79,13.27-11.72,19.83-.05.08-.16.18-.15.3,1,.05,2.07.13,3.13.17.56-.82,1-1.7,1.56-2.56,3.59-6,7.23-12,10.83-18H277.6c.9-1.76,1.9-3.58,2.78-5.33a.79.79,0,0,0,.13-.35H249c-1,1.95-2,3.93-3,5.91M243,389.42h5.65c1.1-1.8,2.17-3.63,3.24-5.46h-5c-1.3,1.82-2.62,3.61-3.89,5.46m10.63,0h3.91c-3.86,6.66-7.74,13.38-11.61,20a.58.58,0,0,0-.13.32h3.33c3.86-6.36,7.82-12.86,11.66-19.29a2.51,2.51,0,0,1,.41-.59,4.56,4.56,0,0,1,1,0h14.7c.92-1.82,1.88-3.72,2.78-5.54.05-.11.15-.22.13-.35H256.87c-1.11,1.8-2.21,3.61-3.28,5.46m10.18,2.89c-4.44,7.93-9,15.91-13.39,23.85-.06.11-.17.21-.17.35q7.34.11,14.7.2c.93-1.73,1.83-3.48,2.72-5.24H255.81c.87-1.39,1.71-2.8,2.61-4.15h12c.87-1.53,1.72-3.18,2.56-4.72,0-.09.15-.18.13-.3H261.5c.68-1.15,1.37-2.28,2.07-3.44.09-.15.21-.44.31-.48a3.75,3.75,0,0,1,.76,0h11.63c1.1-1.88,2.21-3.86,3.28-5.76.07-.13.18-.26.17-.37H263.81a.05.05,0,0,0,0,.06" transform="translate(-234.05 -366.67)"/><path class="cls-2" d="M299.84,384.93h-4v-2.39h10.88v2.39h-4v10.54h-2.92Z" transform="translate(-234.05 -366.67)"/><path class="cls-2" d="M308.1,391.41a2.57,2.57,0,0,0,.65,1.8,2.75,2.75,0,0,0,3.09.18,1.62,1.62,0,0,0,.71-.82h2.32a4.39,4.39,0,0,1-1.71,2.41,5,5,0,0,1-2.79.74,5.5,5.5,0,0,1-2-.36,4.35,4.35,0,0,1-1.54-1,4.5,4.5,0,0,1-1-1.56,5.57,5.57,0,0,1-.34-2,5.33,5.33,0,0,1,.35-2,4.56,4.56,0,0,1,1-1.57,4.73,4.73,0,0,1,1.55-1,5.09,5.09,0,0,1,2-.38,4.68,4.68,0,0,1,2.14.46,4.25,4.25,0,0,1,1.5,1.24,5,5,0,0,1,.85,1.77,6.47,6.47,0,0,1,.19,2.08Zm4.3-1.63a2.94,2.94,0,0,0-.66-1.49,1.88,1.88,0,0,0-1.44-.51,2.35,2.35,0,0,0-1.05.21,2,2,0,0,0-.67.52,1.87,1.87,0,0,0-.35.65,2.86,2.86,0,0,0-.12.62Z" transform="translate(-234.05 -366.67)"/><path class="cls-2" d="M323.15,389.4a1.76,1.76,0,0,0-2-1.61,1.89,1.89,0,0,0-1.06.28,2.26,2.26,0,0,0-.7.72,3.07,3.07,0,0,0-.38,1,5.21,5.21,0,0,0-.11,1.05,5,5,0,0,0,.11,1,3.13,3.13,0,0,0,.36,1,2,2,0,0,0,.68.7,1.9,1.9,0,0,0,1,.27,2,2,0,0,0,1.45-.52,2.39,2.39,0,0,0,.65-1.39h2.55a4.24,4.24,0,0,1-1.49,2.85,4.86,4.86,0,0,1-3.14,1,5.37,5.37,0,0,1-2-.35,4.35,4.35,0,0,1-1.52-1,4.57,4.57,0,0,1-1-1.52,5.12,5.12,0,0,1-.35-1.93,6.09,6.09,0,0,1,.33-2,4.51,4.51,0,0,1,1-1.61,4.38,4.38,0,0,1,1.54-1.06,5.37,5.37,0,0,1,2.08-.38,6.18,6.18,0,0,1,1.65.22,4.34,4.34,0,0,1,1.4.66,3.69,3.69,0,0,1,1,1.11,3.41,3.41,0,0,1,.46,1.56Z" transform="translate(-234.05 -366.67)"/><path class="cls-2" d="M327.27,382.54h2.64v4.87H330a3.12,3.12,0,0,1,1.28-1.18,3.47,3.47,0,0,1,1.53-.38,4.6,4.6,0,0,1,1.74.28,2.58,2.58,0,0,1,1.07.78,3,3,0,0,1,.55,1.21,7.36,7.36,0,0,1,.16,1.58v5.76h-2.64v-5.29a3.15,3.15,0,0,0-.38-1.73,1.46,1.46,0,0,0-1.31-.57,1.85,1.85,0,0,0-1.56.62,3.4,3.4,0,0,0-.48,2.06v4.91h-2.64Z" transform="translate(-234.05 -366.67)"/><path class="cls-2" d="M338.3,386.11h2.51v1.3h.06a3.1,3.1,0,0,1,1.3-1.18,3.77,3.77,0,0,1,1.64-.38,4.6,4.6,0,0,1,1.74.28,2.58,2.58,0,0,1,1.07.78,3,3,0,0,1,.55,1.21,7.36,7.36,0,0,1,.16,1.58v5.76h-2.64v-5.29a3.15,3.15,0,0,0-.38-1.73,1.46,1.46,0,0,0-1.31-.57,1.85,1.85,0,0,0-1.56.62,3.4,3.4,0,0,0-.48,2.06v4.91H338.3Z" transform="translate(-234.05 -366.67)"/><path class="cls-2" d="M352,384.66h-2.64v-2.12H352Zm-2.64,1.45H352v9.36h-2.64Z" transform="translate(-234.05 -366.67)"/><path class="cls-2" d="M360.68,389.4a1.76,1.76,0,0,0-2-1.61,1.89,1.89,0,0,0-1.06.28,2.26,2.26,0,0,0-.7.72,3.07,3.07,0,0,0-.38,1,5.21,5.21,0,0,0-.11,1.05,5,5,0,0,0,.11,1,3.13,3.13,0,0,0,.36,1,2,2,0,0,0,.68.7,1.9,1.9,0,0,0,1,.27,2,2,0,0,0,1.45-.52,2.39,2.39,0,0,0,.65-1.39h2.55a4.24,4.24,0,0,1-1.49,2.85,4.86,4.86,0,0,1-3.14,1,5.37,5.37,0,0,1-2-.35,4.35,4.35,0,0,1-1.52-1,4.57,4.57,0,0,1-1-1.52,5.12,5.12,0,0,1-.35-1.93,6.09,6.09,0,0,1,.33-2,4.51,4.51,0,0,1,1-1.61,4.38,4.38,0,0,1,1.54-1.06,5.37,5.37,0,0,1,2.08-.38,6.18,6.18,0,0,1,1.65.22,4.34,4.34,0,0,1,1.4.66,3.69,3.69,0,0,1,1,1.11,3.41,3.41,0,0,1,.46,1.56Z" transform="translate(-234.05 -366.67)"/><path class="cls-2" d="M364.7,389a2.93,2.93,0,0,1,.46-1.5,3.13,3.13,0,0,1,1-1,4.61,4.61,0,0,1,1.41-.52,8.25,8.25,0,0,1,1.6-.15,11.06,11.06,0,0,1,1.47.1,4.6,4.6,0,0,1,1.36.39,2.63,2.63,0,0,1,1,.82,2.22,2.22,0,0,1,.39,1.36v4.87a9.46,9.46,0,0,0,.07,1.21,2.14,2.14,0,0,0,.26.87h-2.68A3.5,3.5,0,0,1,371,395a3.65,3.65,0,0,1-.06-.46,3.54,3.54,0,0,1-1.49.9,5.92,5.92,0,0,1-1.75.26,4.61,4.61,0,0,1-1.28-.17,3.08,3.08,0,0,1-1-.52,2.36,2.36,0,0,1-.7-.87,2.87,2.87,0,0,1-.25-1.25,2.74,2.74,0,0,1,.28-1.31,2.25,2.25,0,0,1,.74-.82,3.5,3.5,0,0,1,1.05-.46,11.19,11.19,0,0,1,1.2-.24l1.17-.14a6.94,6.94,0,0,0,1-.16,1.81,1.81,0,0,0,.7-.32.73.73,0,0,0,.26-.61,1.34,1.34,0,0,0-.14-.66,1,1,0,0,0-.37-.38,1.48,1.48,0,0,0-.54-.18,4.56,4.56,0,0,0-.66,0,2.05,2.05,0,0,0-1.22.33,1.43,1.43,0,0,0-.53,1.09Zm6.1,1.9a1.19,1.19,0,0,1-.42.23,4.39,4.39,0,0,1-.54.14l-.61.09-.62.09a4.25,4.25,0,0,0-.6.14,1.79,1.79,0,0,0-.49.24,1.15,1.15,0,0,0-.34.4,1.24,1.24,0,0,0-.13.59,1.17,1.17,0,0,0,.13.59,1,1,0,0,0,.35.36,1.51,1.51,0,0,0,.52.19,3.42,3.42,0,0,0,.61.05,2.39,2.39,0,0,0,1.21-.25,1.72,1.72,0,0,0,.63-.61,1.91,1.91,0,0,0,.25-.72,4.84,4.84,0,0,0,0-.58Z" transform="translate(-234.05 -366.67)"/><path class="cls-2" d="M375.56,382.54h2.64v12.93h-2.64Z" transform="translate(-234.05 -366.67)"/><path class="cls-2" d="M304.25,412.75a5.82,5.82,0,0,1-1.7,1.15,5.09,5.09,0,0,1-2,.39,5.3,5.3,0,0,1-1.68-.26,4,4,0,0,1-1.37-.76,3.59,3.59,0,0,1-.91-1.21,3.83,3.83,0,0,1-.33-1.64,3.22,3.22,0,0,1,.24-1.25,3.61,3.61,0,0,1,.66-1,5.33,5.33,0,0,1,.95-.82,7.49,7.49,0,0,1,1.13-.63,8.43,8.43,0,0,1-.9-1.27,2.94,2.94,0,0,1-.36-1.49,2.55,2.55,0,0,1,.29-1.21,3,3,0,0,1,.77-.93,3.53,3.53,0,0,1,1.11-.6,4.05,4.05,0,0,1,1.29-.21,4.94,4.94,0,0,1,1.41.2,3.44,3.44,0,0,1,1.16.59,2.82,2.82,0,0,1,.78,1,3,3,0,0,1,.29,1.34,2.82,2.82,0,0,1-.68,1.92,5.72,5.72,0,0,1-1.68,1.3l1.71,2a3.47,3.47,0,0,0,.32-.75,5.74,5.74,0,0,0,.17-.79h2.29a6.59,6.59,0,0,1-.41,1.68,5.6,5.6,0,0,1-.87,1.5l2.7,3.06h-3.24Zm-3.66-4.42a4.64,4.64,0,0,0-.69.35,3.25,3.25,0,0,0-.6.47,2.17,2.17,0,0,0-.42.59,1.63,1.63,0,0,0-.16.72,1.44,1.44,0,0,0,.16.67,1.76,1.76,0,0,0,.42.53,2,2,0,0,0,.6.36,1.93,1.93,0,0,0,.72.14,2.36,2.36,0,0,0,1.24-.32,4.46,4.46,0,0,0,1-.82Zm2.14-4.42a1.19,1.19,0,0,0-.36-.87,1.16,1.16,0,0,0-.85-.36,1.21,1.21,0,0,0-.84.32,1.05,1.05,0,0,0-.35.82,1.67,1.67,0,0,0,.33,1.05l.71.89a5.26,5.26,0,0,0,1-.74A1.49,1.49,0,0,0,302.72,403.91Z" transform="translate(-234.05 -366.67)"/><path class="cls-2" d="M317.75,403.5h-4v-2.39h10.88v2.39h-4V414h-2.92Z" transform="translate(-234.05 -366.67)"/><path class="cls-2" d="M324.19,404.67h2.51v1.74h0a3.14,3.14,0,0,1,.5-.81A3.26,3.26,0,0,1,328,405a3.54,3.54,0,0,1,.88-.41,3.26,3.26,0,0,1,1-.15,1.86,1.86,0,0,1,.58.09v2.39l-.45-.06-.5,0a2.88,2.88,0,0,0-1.23.24,2.12,2.12,0,0,0-.81.64,2.54,2.54,0,0,0-.44,1,5.08,5.08,0,0,0-.13,1.17V414h-2.64Z" transform="translate(-234.05 -366.67)"/><path class="cls-2" d="M331.31,407.55a2.93,2.93,0,0,1,.46-1.5,3.13,3.13,0,0,1,1-1,4.61,4.61,0,0,1,1.41-.52,8.25,8.25,0,0,1,1.6-.15,11.06,11.06,0,0,1,1.47.1,4.6,4.6,0,0,1,1.36.39,2.63,2.63,0,0,1,1,.82,2.22,2.22,0,0,1,.39,1.36V412a9.47,9.47,0,0,0,.07,1.21,2.14,2.14,0,0,0,.26.87h-2.68a3.53,3.53,0,0,1-.12-.44,3.66,3.66,0,0,1-.06-.46,3.53,3.53,0,0,1-1.49.9,5.92,5.92,0,0,1-1.75.26,4.61,4.61,0,0,1-1.28-.17,3.08,3.08,0,0,1-1-.52,2.36,2.36,0,0,1-.7-.87,2.87,2.87,0,0,1-.25-1.25,2.74,2.74,0,0,1,.28-1.31,2.25,2.25,0,0,1,.74-.82,3.5,3.5,0,0,1,1.05-.46,11.19,11.19,0,0,1,1.2-.24l1.17-.14a6.94,6.94,0,0,0,1-.16,1.81,1.81,0,0,0,.7-.32.73.73,0,0,0,.26-.61,1.34,1.34,0,0,0-.14-.66,1,1,0,0,0-.37-.38,1.48,1.48,0,0,0-.54-.18,4.56,4.56,0,0,0-.66,0,2.05,2.05,0,0,0-1.22.33,1.43,1.43,0,0,0-.53,1.09Zm6.1,1.9a1.19,1.19,0,0,1-.42.23,4.39,4.39,0,0,1-.54.14l-.61.09-.62.09a4.25,4.25,0,0,0-.6.14,1.77,1.77,0,0,0-.49.24,1.14,1.14,0,0,0-.34.4,1.24,1.24,0,0,0-.13.59,1.17,1.17,0,0,0,.13.59,1,1,0,0,0,.35.36,1.52,1.52,0,0,0,.52.19,3.42,3.42,0,0,0,.61.05,2.39,2.39,0,0,0,1.21-.25,1.72,1.72,0,0,0,.63-.61,1.91,1.91,0,0,0,.25-.72,4.83,4.83,0,0,0,0-.58Z" transform="translate(-234.05 -366.67)"/><path class="cls-2" d="M349,412.84h0a2.74,2.74,0,0,1-1.23,1.11,4.46,4.46,0,0,1-3.6-.07,3.9,3.9,0,0,1-1.34-1.11,5,5,0,0,1-.8-1.6,6.56,6.56,0,0,1-.27-1.88,6.17,6.17,0,0,1,.27-1.82,4.68,4.68,0,0,1,.8-1.55,4,4,0,0,1,1.33-1.08,4,4,0,0,1,1.86-.41,3.87,3.87,0,0,1,1.63.35,2.81,2.81,0,0,1,1.22,1h0v-4.71h2.64V414H349Zm0-3.51a5.47,5.47,0,0,0-.11-1.1,2.68,2.68,0,0,0-.38-1,2,2,0,0,0-1.78-.91,2.19,2.19,0,0,0-1.1.25,2,2,0,0,0-.72.67,2.91,2.91,0,0,0-.39,1,5,5,0,0,0-.12,1.11,4.64,4.64,0,0,0,.13,1.09,2.91,2.91,0,0,0,.42,1,2.28,2.28,0,0,0,.73.69,2,2,0,0,0,1.05.26,2.14,2.14,0,0,0,1.09-.25,2,2,0,0,0,.7-.68,3,3,0,0,0,.37-1A5.56,5.56,0,0,0,348.92,409.33Z" transform="translate(-234.05 -366.67)"/><path class="cls-2" d="M356.18,403.22h-2.64v-2.12h2.64Zm-2.64,1.45h2.64V414h-2.64Z" transform="translate(-234.05 -366.67)"/><path class="cls-2" d="M358.26,404.67h2.51V406h.06a3.1,3.1,0,0,1,1.3-1.18,3.77,3.77,0,0,1,1.64-.38,4.6,4.6,0,0,1,1.74.28,2.58,2.58,0,0,1,1.07.78,3,3,0,0,1,.55,1.21,7.36,7.36,0,0,1,.16,1.58V414h-2.64v-5.29a3.15,3.15,0,0,0-.38-1.73,1.46,1.46,0,0,0-1.31-.57,1.85,1.85,0,0,0-1.56.62,3.4,3.4,0,0,0-.48,2.06V414h-2.64Z" transform="translate(-234.05 -366.67)"/><path class="cls-2" d="M378.53,413.44a6.07,6.07,0,0,1-.07.84,3.94,3.94,0,0,1-.25.92,3.62,3.62,0,0,1-.52.89,3.25,3.25,0,0,1-.89.76,5,5,0,0,1-1.36.53,7.92,7.92,0,0,1-1.9.2,6.32,6.32,0,0,1-1.44-.17,4.67,4.67,0,0,1-1.34-.53,3.26,3.26,0,0,1-1-.93,2.66,2.66,0,0,1-.46-1.37h2.62a1.47,1.47,0,0,0,.73,1,2.65,2.65,0,0,0,1.25.28,2,2,0,0,0,1.62-.65,2.51,2.51,0,0,0,.5-1.67v-1.23h0a2.6,2.6,0,0,1-1.22,1.1,4,4,0,0,1-1.66.35,4.29,4.29,0,0,1-1.86-.37,3.51,3.51,0,0,1-1.28-1,4.17,4.17,0,0,1-.73-1.5,6.94,6.94,0,0,1-.23-1.82,5.7,5.7,0,0,1,.27-1.75,4.53,4.53,0,0,1,.79-1.49,3.8,3.8,0,0,1,1.29-1,4,4,0,0,1,1.78-.38,3.8,3.8,0,0,1,1.66.34,2.84,2.84,0,0,1,1.2,1.16h0v-1.25h2.51Zm-4.76-1.61a2.15,2.15,0,0,0,1-.22,2,2,0,0,0,.71-.58,2.55,2.55,0,0,0,.42-.82,3.33,3.33,0,0,0,.14-1,5.21,5.21,0,0,0-.11-1.09,2.69,2.69,0,0,0-.37-.92,1.89,1.89,0,0,0-.7-.63,2.23,2.23,0,0,0-1.07-.24,1.9,1.9,0,0,0-1.63.81,2.45,2.45,0,0,0-.39.85,4.1,4.1,0,0,0-.12,1,5,5,0,0,0,.1,1,2.67,2.67,0,0,0,.35.9,2,2,0,0,0,.66.65A1.9,1.9,0,0,0,373.77,411.83Z" transform="translate(-234.05 -366.67)"/></svg>